<svg width="200" height="200" viewBox="0 0 200 200" fill="none" xmlns="http://www.w3.org/2000/svg">
<path d="M46.48 117.968C47.92 117.968 48.992 117.856 49.696 117.632C50.4 117.376 50.896 116.912 51.184 116.24C51.472 115.536 51.616 114.496 51.616 113.12V83.12H58.672V113.312C58.672 115.584 58.416 117.424 57.904 118.832C57.392 120.208 56.496 121.248 55.216 121.952C53.936 122.624 52.16 122.96 49.888 122.96H46.48V117.968ZM98.3763 83.12H102.696L91.4643 122H87.1443L98.3763 83.12ZM131.182 83.12H136.126L145.582 105.296V83.12H151.438V122H146.734L137.23 98.768V122H131.182V83.12Z" fill="#BB86FC"/>
<circle cx="100" cy="100" r="99" stroke="#BB86FC" stroke-width="2"/>
</svg>
